<svg viewBox="0 0 32 32" xmlns="http://www.w3.org/2000/svg" fill-rule="evenodd" clip-rule="evenodd" stroke-linejoin="round" stroke-miterlimit="1.414"><path d="M30.051 27.001l.051.004.05.007.049.008.049.012.047.013.047.016.045.018.044.02.043.022.042.024.041.026.039.028.038.029.036.032.035.033.033.035.032.036.029.038.028.039.026.041.024.042.022.043.02.044.018.045.016.047.013.047.012.049.008.049.007.05.004.051L31 28v2l-.001.051-.004.051-.007.05-.008.049-.012.049-.013.047-.016.047-.018.045-.02.044-.022.043-.024.042-.026.041-.028.039-.029.038-.032.036-.033.035-.035.033-.036.032-.038.029-.039.028-.041.026-.042.024-.043.022-.044.02-.045.018-.047.016-.047.013-.049.012-.049.008-.05.007-.051.004L30 31H2l-.051-.001-.051-.004-.05-.007-.049-.008-.049-.012-.047-.013-.047-.016-.045-.018-.044-.02-.043-.022-.042-.024-.041-.026-.039-.028-.038-.029-.036-.032-.035-.033-.033-.035-.032-.036-.029-.038-.028-.039-.026-.041-.024-.042-.022-.043-.02-.044-.018-.045-.016-.047-.013-.047-.012-.049-.008-.049-.007-.05-.004-.051L1 30v-2l.001-.051.004-.051.007-.05.008-.049.012-.049.013-.047.016-.047.018-.045.02-.044.022-.043.024-.042.026-.041.028-.039.029-.038.032-.036.033-.035.035-.033.036-.032.038-.029.039-.028.041-.026.042-.024.043-.022.044-.02.045-.018.047-.016.047-.013.049-.012.049-.008.05-.007.051-.004L2 27h28l.051.001zM17.068 1.001l.05.004.049.006.049.009.047.011.047.013.046.016.044.017.044.02.042.022.041.023.04.026.039.027.037.029.035.031.034.033.033.034.031.035.029.037.027.039.026.04.023.041.022.042.02.044.017.044.016.046.013.047.011.047.009.049.006.049.004.05.001.05V17h3.54l.038.001.039.002.037.003.038.005.037.007.037.007.037.009.036.011.035.011.035.013.034.014.034.016.033.016.033.018.032.019.031.02.03.021.03.022.029.023.028.025.027.025.026.026.025.028.025.028.023.029.022.031.021.031.02.032.019.033.018.033.017.035.015.035.014.036.013.036.011.037.01.036.008.037.007.037.006.037.004.037.003.037.002.038v.037l-.001.037-.003.037-.004.037-.005.036-.007.037-.008.036-.009.036-.01.035-.012.036-.013.034-.015.035-.015.033-.017.034-.018.032-.02.033-.02.031-.022.031-.023.03-.024.029-.026.029-.027.028-5.54 5.54-.037.035-.038.033-.039.03-.041.029-.042.027-.044.024-.044.023-.045.02-.047.018-.047.015-.048.014-.048.01-.05.009-.049.006-.051.004-.05.001-.05-.001-.051-.004-.049-.006-.05-.009-.048-.01-.048-.014-.047-.015-.047-.018-.045-.02-.044-.023-.044-.024-.042-.027-.041-.029-.039-.03-.038-.033-.037-.035-5.498-5.498-.027-.028-.026-.029-.025-.031-.024-.03-.022-.032-.021-.032-.02-.033-.019-.034-.017-.034-.016-.034-.015-.036-.013-.035-.012-.036-.011-.037-.009-.036-.008-.037-.007-.038-.006-.037-.004-.038-.002-.038-.001-.038v-.038l.001-.038.003-.038.004-.038.006-.038.007-.038.009-.038.01-.037.012-.038.013-.037.014-.037.016-.036.017-.035.018-.035.019-.033.021-.033.022-.032.023-.031.023-.03.025-.029.026-.028.027-.027.028-.026.028-.025.03-.024.03-.022.031-.022.032-.021.033-.019.033-.018.034-.017.035-.016.035-.014.036-.013.036-.012.037-.011.037-.009.038-.008.038-.006.039-.005.039-.004.039-.002.039-.001H14V1.991l.001-.049.004-.049.006-.048.008-.048.011-.048.013-.046.015-.046.017-.045.02-.045.022-.043.024-.042.025-.041.028-.04.03-.038.032-.037.034-.036.036-.034.037-.032.038-.03.04-.028.041-.025.042-.024.043-.022.045-.02.045-.017.046-.015.046-.013.048-.011.048-.008.048-.006.049-.004.049-.001h2.027l.05.001z" fill="#fff" /></svg>