<svg viewBox="0 0 32 32" xmlns="http://www.w3.org/2000/svg" fill-rule="evenodd" clip-rule="evenodd" stroke-linejoin="round" stroke-miterlimit="1.414"><path d="M17.573 1l.051.001.051.004.05.006.05.009.049.011.049.014.048.015.047.019.045.02.045.023.044.024.043.027.041.029.04.032.039.033.037.035 9.415 9.415.033.035.031.036.029.037.028.039.025.04.023.041.021.042.019.043.017.044.015.045.013.046.01.046.008.046.006.048.004.047.001.048v17.091l-.001.065-.002.064-.004.064-.006.064-.007.063-.009.062-.01.062-.012.062-.013.061-.015.06-.016.06-.018.059-.019.059-.02.057-.022.058-.023.056-.025.056-.026.056-.027.054-.028.054-.03.053-.03.052-.032.051-.034.051-.034.049-.036.049-.036.048-.038.047-.039.046-.04.045-.041.044-.042.043-.043.042-.044.041-.045.04-.046.039-.047.038-.048.036-.049.036-.049.034-.051.034-.051.032-.052.03-.053.03-.054.028-.054.027-.056.026-.056.025-.056.023-.058.022-.057.02-.059.019-.059.018-.06.016-.06.015-.061.013-.062.012-.062.01-.062.009-.063.007-.064.006-.064.004-.064.002-.065.001H6.509l-.065-.001-.064-.002-.064-.004-.064-.006-.063-.007-.062-.009-.062-.01-.062-.012-.061-.013-.06-.015-.06-.016-.059-.018-.059-.019-.057-.02-.058-.022-.056-.023-.056-.025-.056-.026-.054-.027-.054-.028-.053-.03-.052-.03-.051-.032-.051-.034-.049-.034-.049-.036-.048-.036-.047-.038-.046-.039-.045-.04-.044-.041-.043-.042-.042-.043-.041-.044-.04-.045-.039-.046-.038-.047-.036-.048-.036-.049-.034-.049-.034-.051-.032-.051-.03-.052-.03-.053-.028-.054-.027-.054-.026-.056-.025-.056-.023-.056-.022-.058-.02-.057-.019-.059-.018-.059-.016-.06-.015-.06-.013-.061-.012-.062-.01-.062-.009-.062-.007-.063-.006-.064-.004-.064-.002-.064L4 28.491V3.509l.001-.065.002-.064.004-.064.006-.064.007-.063.009-.062.01-.062.012-.062.013-.061.015-.06.016-.06.018-.059.019-.059.02-.057.022-.058.023-.056.025-.056.026-.055.027-.055.028-.054.03-.053.03-.052.032-.051.034-.051.034-.049.036-.049.036-.048.038-.047.039-.046.04-.045.041-.044.042-.043.043-.042.044-.041.045-.04.046-.039.047-.038.048-.036.049-.036.049-.034.051-.034.051-.032.052-.03.053-.03.054-.028.054-.027.056-.026.056-.025.056-.023.057-.022.058-.02.059-.019.059-.018.06-.016.06-.015.061-.013.062-.012.062-.01.062-.009.063-.007.064-.006.064-.004.064-.002L6.509 1h11.064zM6.521 3h-.026l-.014.001-.013.001-.013.001-.013.001-.013.002-.012.002-.012.002-.012.003-.012.003-.012.003-.011.004-.012.003-.011.004-.012.005-.011.004-.011.005-.011.005-.011.006-.011.005-.01.006-.011.007-.01.006-.011.007-.01.007-.01.007-.01.008-.009.008-.01.008-.009.008-.01.009-.009.008-.008.009-.009.01-.008.009-.008.01-.008.009-.008.01-.007.01-.007.01-.007.011-.006.01-.007.011-.006.01-.005.011-.006.011-.005.011-.005.011-.004.011-.005.012-.004.011-.003.012-.004.011-.003.012-.003.012-.003.012-.002.012-.002.012-.002.013-.001.013-.001.013-.001.013L6 3.495V28.505l.001.014.001.013.001.013.001.013.002.013.002.012.002.012.003.012.003.012.003.012.004.011.003.012.004.011.005.012.004.011.005.011.005.011.006.011.005.011.006.01.007.011.006.01.007.011.007.01.007.01.008.01.008.009.008.01.008.009.009.01.008.009.009.008.01.009.009.008.01.008.009.008.01.008.01.007.01.007.011.007.01.006.011.007.01.006.011.005.011.006.011.005.011.005.011.004.012.005.011.004.012.003.011.004.012.003.012.003.012.003.012.002.012.002.013.002.013.001.013.001.013.001.014.001H25.505l.014-.001.013-.001.013-.001.013-.001.013-.002.012-.002.012-.002.012-.003.012-.003.012-.003.011-.004.012-.003.011-.004.012-.005.011-.004.011-.005.011-.005.011-.006.011-.005.01-.006.011-.007.01-.006.011-.007.01-.007.01-.007.01-.008.009-.008.01-.008.009-.008.01-.009.009-.008.008-.009.009-.01.008-.009.008-.01.008-.009.008-.01.007-.01.007-.01.007-.011.006-.01.007-.011.006-.01.005-.011.006-.011.005-.011.005-.011.004-.011.005-.012.004-.011.003-.012.004-.011.003-.012.003-.012.003-.012.002-.012.002-.012.002-.013.001-.013.001-.013.001-.013.001-.014V11.828L17.172 3H6.521z" fill="#53657d"/><path d="M18.001 1.349l.035.002.034.004.034.004.035.007.033.007.034.009.033.009.033.011.032.013.032.013.032.015.031.015.031.017.03.018.029.02.029.02.028.022.028.022.026.024.026.025 8.737 8.737.025.026.024.027.023.027.022.029.02.029.02.029.018.031.017.03.016.032.015.032.013.032.012.033.011.033.01.033.009.034.007.034.006.034.005.035.004.034.003.035.001.035v.035l-.002.035-.003.035-.004.035-.005.035-.006.035-.008.034-.01.035-.01.034-.012.034-.013.034-.015.033-.015.033-.017.031-.018.031-.019.03-.02.03-.021.028-.022.028-.023.026-.023.026-.025.025-.026.024-.026.023-.027.022-.028.021-.028.019-.03.019-.03.018-.03.017-.032.015-.031.015-.033.013-.033.012-.033.011-.034.01-.034.008-.035.007-.035.006-.035.005-.036.003-.036.002-.036.001h-8.708l-.049-.001-.048-.004-.048-.006-.047-.008-.046-.01-.046-.013-.046-.015-.044-.017-.044-.02-.042-.021-.042-.024-.04-.025-.039-.028-.038-.029-.037-.032-.035-.033-.033-.035-.032-.037-.029-.038-.028-.039-.025-.04-.024-.042-.021-.042-.02-.044-.017-.044-.015-.046-.013-.046-.01-.046-.008-.047-.006-.048-.004-.048-.001-.049V2.3l.001-.036.002-.036.003-.035.005-.035.006-.035.007-.035.008-.034.01-.033.011-.034.012-.032.013-.032.014-.032.016-.031.016-.03.018-.03.019-.029.019-.029.021-.027.022-.027.023-.027.023-.025.025-.024.026-.024.026-.023.027-.021.029-.021.029-.02.03-.019.03-.018.032-.016.032-.016.033-.014.034-.013.033-.012.034-.011.035-.009.034-.008.035-.006.034-.005.035-.004.035-.003.035-.002h.035l.034.002zM19 10h5.172L19 4.828V10zM21 25H3a1 1 0 0 1-1-1v-8a1 1 0 0 1 1-1h18a1 1 0 0 1 1 1v8a1 1 0 0 1-1 1zM5.713 21.236a.652.652 0 0 0 .218.183.575.575 0 0 0 .313.084.702.702 0 0 0 .458-.166.562.562 0 0 0 .167-.224.786.786 0 0 0 .062-.335v-2.68h.603v2.74c-.007.4-.138.709-.393.927a1.309 1.309 0 0 1-.88.341c-.462-.011-.807-.184-1.034-.518l.486-.352zm2.664-.128c.316.26.692.392 1.128.395.517-.007.778-.192.786-.553.003-.297-.169-.475-.518-.535-.16-.021-.336-.046-.527-.073-.341-.057-.601-.183-.779-.379a1.053 1.053 0 0 1-.276-.736c0-.348.116-.628.346-.84.224-.211.541-.318.952-.322.494.011.924.148 1.29.412l-.336.496a1.821 1.821 0 0 0-.984-.305.747.747 0 0 0-.463.139c-.13.096-.196.24-.2.43 0 .115.045.219.134.311.089.095.232.16.428.197.109.018.258.039.447.062.373.051.648.185.827.401.176.213.264.46.264.742-.02.76-.485 1.145-1.396 1.156-.589 0-1.095-.182-1.519-.545l.396-.453zm3.018-1.023c0-.461.014-.77.041-.927.029-.156.073-.282.133-.379.097-.183.251-.347.464-.49.209-.146.47-.22.783-.224.316.004.579.078.79.224.209.143.36.307.453.49a.915.915 0 0 1 .139.379c.024.157.035.466.035.927 0 .455-.011.762-.035.922a.912.912 0 0 1-.139.384 1.3 1.3 0 0 1-.453.486c-.211.145-.474.222-.79.229-.313-.007-.574-.084-.783-.229a1.335 1.335 0 0 1-.464-.486 5.843 5.843 0 0 1-.079-.171 1.171 1.171 0 0 1-.054-.213c-.027-.16-.041-.467-.041-.922zm6.522 1.988v-3.975h-.602v2.824h-.011l-1.8-2.824h-.567v3.975h.602v-2.825h.011l1.797 2.825h.57zM12 20.085c0 .391.015.656.044.794.025.138.077.25.155.335a.713.713 0 0 0 .251.199.71.71 0 0 0 .366.09c.143 0 .268-.03.373-.09.1-.051.18-.117.24-.199a.697.697 0 0 0 .161-.335c.027-.138.041-.403.041-.794 0-.39-.014-.657-.041-.799a.693.693 0 0 0-.161-.329.722.722 0 0 0-.24-.205.862.862 0 0 0-.739 0 .776.776 0 0 0-.251.205.652.652 0 0 0-.155.329c-.029.142-.044.409-.044.799z" fill="#53657d"/><path d="M21.051 15.001l.051.004.05.007.049.008.049.012.047.013.047.016.045.018.044.02.043.022.042.024.041.026.039.028.038.029.036.032.035.033.033.035.032.036.029.038.028.039.026.041.024.042.022.043.02.044.018.045.016.047.013.047.012.049.008.049.007.05.004.051L22 16v8l-.001.051-.004.051-.007.05-.008.049-.012.049-.013.047-.016.047-.018.045-.02.044-.022.043-.024.042-.026.041-.028.039-.029.038-.032.036-.033.035-.035.033-.036.032-.038.029-.039.028-.041.026-.041.024-.044.022-.044.02-.045.018-.047.016-.047.013-.049.012-.049.008-.05.007-.051.004L21 25H3l-.051-.001-.051-.004-.05-.007-.049-.008-.049-.012-.047-.013-.047-.016-.045-.018-.044-.02-.043-.022-.042-.024-.041-.026-.039-.028-.038-.029-.036-.032-.035-.033-.033-.035-.032-.036-.029-.038-.028-.039-.026-.041-.024-.042-.022-.043-.02-.044-.018-.045-.016-.047-.013-.047-.012-.049-.008-.049-.007-.05-.004-.051L2 24v-8l.001-.051.004-.051.007-.05.008-.049.012-.049.013-.047.016-.047.018-.045.02-.044.022-.043.024-.042.026-.041.028-.039.029-.038.032-.036.033-.035.035-.033.036-.032.038-.029.039-.028.041-.026.042-.024.043-.022.044-.02.045-.018.047-.016.047-.013.049-.012.049-.008.05-.007.051-.004L3 15h18l.051.001zM19.588 17l.018.026.064.108.057.112.05.115.042.119.035.12.028.123.019.124.012.125.004.126v3.975l-.004.126-.012.125-.019.124-.028.123-.035.12-.042.118-.05.116-.039.075H20v-6h-.412zM6.931 18.098v2.68l-.001.049-.002.048-.005.045-.007.043-.009.041-.011.038-.013.037-.014.034-.016.034-.017.032-.019.031-.02.029-.021.027-.023.025-.025.024-.026.022-.027.021-.027.019-.028.018-.028.017-.028.015-.028.014-.029.012-.028.011-.029.01-.029.008-.029.007-.029.006-.029.004-.03.003-.03.001h-.03l-.044-.001-.043-.004-.041-.007-.04-.009-.039-.012L6 21.456l-.018-.009-.017-.008-.017-.01-.017-.01-.033-.019-.031-.019-.03-.021-.028-.022-.026-.024-.025-.025-.023-.026-.022-.027-.486.352.022.031.022.03.023.029.024.028.024.027.025.026.026.025.027.024.027.024.028.022.028.021.029.021.03.019.031.019.031.017.032.017.033.016.033.015.034.013.035.013.035.012.036.011.037.01.037.009.039.008.038.008.04.006.04.005.041.005.041.003.043.002.043.002.062-.002.061-.005.061-.007.059-.009.058-.013.058-.015.056-.017.056-.02.054-.023.054-.025.053-.028.051-.03.051-.033.05-.035.049-.038.047-.041.024-.021.023-.021.022-.022.021-.022.021-.023.02-.023.019-.024.018-.025.018-.025.017-.025.016-.026.016-.027.014-.027.014-.027.014-.029.012-.028.012-.03.012-.029.01-.031.01-.03.009-.032.008-.032.008-.032.006-.033.007-.034.005-.034.005-.034.004-.035.003-.036.002-.036.003-.074v-2.74h-.603zm2.482-.031l-.074.004-.071.007-.07.009-.067.012-.065.014-.062.016-.061.019-.029.01-.029.011-.029.012-.028.012-.027.013-.027.013-.026.014-.025.015-.025.015-.025.016-.024.016-.023.017-.023.018-.023.018-.021.019-.022.02-.021.02-.02.02-.02.021-.02.022-.018.021-.018.022-.017.023-.017.023-.016.023-.015.024-.015.024-.014.024-.013.025-.012.025-.012.026-.011.026-.011.027-.01.026-.009.028-.008.027-.008.028-.007.029-.012.058-.01.059-.006.061-.004.063-.002.065.001.053.003.053.006.051.007.051.01.05.012.048.014.048.016.046.018.046.021.044.022.044.025.042.027.042.029.04.031.039.034.039.034.036.036.034.038.033.04.031.043.029.043.028.046.026.048.025.05.023.051.021.054.019.055.018.058.017.059.014.061.013.063.012.275.039.252.034.032.006.031.007.03.007.029.008.028.009.027.01.026.01.025.01.024.012.023.012.022.013.021.014.02.014.018.015.018.016.017.016.016.017.014.018.014.018.012.019.012.02.01.021.01.021.008.022.008.022.006.024.005.024.005.024.003.026.002.026.001.026.001.028-.002.033-.003.032-.004.032-.006.03-.007.029-.009.029-.011.027-.011.026-.014.025-.015.024-.016.023-.018.022-.019.021-.021.02-.022.019-.024.017-.025.017-.027.016-.028.015-.03.013-.031.013-.033.012-.034.01-.036.01-.037.008-.039.007-.04.007-.042.005-.043.005-.045.003-.046.002-.048.001h-.04l-.041-.002-.04-.002-.039-.003-.04-.004-.039-.004-.038-.006-.039-.005-.037-.007-.038-.008-.037-.008-.037-.009-.037-.01-.036-.01-.036-.011-.035-.012-.035-.013-.035-.014-.034-.014-.034-.015-.034-.015-.033-.017-.033-.017-.033-.018-.032-.019-.032-.019-.032-.021-.031-.021-.031-.021-.03-.023-.031-.023-.029-.024-.396.453.04.033.041.033.04.031.042.03.042.03.042.028.043.027.043.026.044.025.044.024.045.023.046.022.045.021.047.019.046.019.048.018.047.016.048.015.049.015.049.013.05.012.05.012.051.01.051.009.051.008.052.007.053.006.053.004.053.004.054.003.055.001.055.001.084-.002.081-.005.079-.006.077-.009.073-.011.071-.013.069-.015.065-.018.064-.019.06-.022.03-.012.028-.012.028-.013.028-.013.026-.014.026-.015.026-.015.025-.015.024-.017.023-.016.023-.018.022-.017.021-.019.021-.019.02-.019.02-.02.019-.021.018-.021.018-.021.017-.022.016-.023.015-.023.015-.024.015-.025.013-.025.013-.025.013-.026.011-.027.012-.027.01-.027.01-.029.009-.028.008-.03.008-.03.007-.03.007-.031.011-.063.008-.066.006-.068.003-.07-.001-.053-.003-.051-.005-.051-.008-.05-.009-.049-.011-.049-.014-.047-.015-.047-.018-.046-.019-.045-.022-.044-.024-.044-.026-.043-.028-.042-.029-.041-.032-.04-.035-.039-.037-.038-.039-.036-.041-.034-.044-.031-.046-.03-.048-.028-.051-.026-.052-.024-.055-.023-.058-.02-.059-.018-.062-.016-.064-.015-.067-.012-.069-.011-.134-.017-.119-.016-.105-.015-.089-.014-.036-.008-.035-.007-.034-.009-.032-.009-.031-.01-.03-.011-.029-.011-.027-.012-.026-.012-.025-.014-.024-.014-.022-.014-.021-.016-.02-.016-.019-.016-.017-.018-.016-.017-.015-.018-.014-.018-.013-.018-.012-.019-.011-.019-.01-.019-.009-.019-.008-.02-.007-.019-.005-.02-.005-.021-.004-.02-.002-.021-.002-.021-.001-.022.002-.035.003-.034.004-.033.006-.032.007-.031.009-.029.01-.029.012-.027.013-.027.015-.025.016-.024.017-.023.02-.022.02-.021.022-.02.024-.018.023-.017.024-.016.025-.015.026-.013.026-.013.028-.011.027-.01.029-.01.029-.008.03-.007.031-.006.032-.005.032-.004.033-.002.034-.002h.034l.067.002.066.005.065.007.065.009.064.011.063.014.063.015.062.018.061.021.06.022.06.025.059.026.059.029.057.032.057.033.056.036.336-.496-.035-.025-.035-.023-.035-.023-.035-.022-.036-.022-.037-.02-.036-.02-.037-.019-.038-.019-.038-.017-.038-.017-.039-.017-.039-.015-.039-.015-.04-.014-.04-.013-.04-.012-.041-.012-.041-.011-.042-.01-.042-.01-.042-.009-.043-.008-.043-.007-.044-.007-.044-.006-.044-.005-.045-.004-.045-.004-.045-.003-.046-.002-.046-.001-.076.002zm3.345-.001l-.057.004-.056.004-.054.007-.053.008-.052.01-.051.011-.05.014-.048.014-.047.017-.046.018-.045.02-.043.021-.042.023-.041.025-.04.027-.039.027-.038.027-.036.028-.036.029-.033.029-.033.03-.031.029-.029.031-.029.031-.027.031-.025.032-.024.032-.023.033-.022.033-.02.034-.019.034-.021.038-.021.04-.018.043-.018.046-.016.049-.014.052-.014.054-.011.057-.005.031-.005.035-.008.08-.007.095-.006.108-.004.123-.003.138-.002.151-.001.166.001.164.002.15.003.136.004.122.006.108.007.094.008.081.005.035.005.032.011.061.013.056.015.051.007.023.008.022.038.084.041.087.019.035.02.033.022.033.023.033.024.032.025.032.027.031.029.03.029.031.031.029.033.029.033.029.036.028.036.027.038.027.039.027.04.026.041.025.042.023.043.022.045.02.046.018.047.017.048.015.05.014.051.012.052.01.053.008.054.007.056.006.057.004.058.002.058-.002.058-.004.056-.006.055-.007.054-.008.052-.01.051-.012.05-.014.049-.015.048-.017.046-.018.045-.02.044-.022.043-.023.041-.025.04-.026.039-.027.037-.027.036-.027.034-.028.033-.029.032-.029.03-.029.029-.031.028-.03.026-.031.025-.032.023-.032.023-.033.02-.033.02-.033.018-.035.012-.018.012-.019.012-.02.01-.021.011-.021.01-.022.018-.047.017-.049.014-.053.012-.055.011-.059.008-.067.007-.081.007-.094.005-.108.003-.122.003-.136.002-.15v-.33l-.002-.151-.003-.138-.003-.123-.005-.108-.007-.095-.007-.08-.008-.066-.011-.057-.012-.054-.014-.052-.017-.049-.018-.046-.021-.043-.01-.02-.012-.02-.012-.019-.012-.019-.018-.034-.02-.034-.02-.033-.023-.033-.023-.032-.025-.032-.026-.031-.028-.031-.029-.031-.03-.029-.032-.03-.033-.029-.034-.029-.036-.028-.037-.027-.039-.027-.04-.027-.041-.025-.043-.023-.044-.021-.045-.02-.046-.018-.048-.017-.049-.014-.05-.014-.051-.011-.052-.01-.054-.008-.055-.007-.056-.004-.058-.004-.058-.001-.058.001zm2.179.032v3.975h.602v-2.825h.011l1.797 2.825h.57v-3.975h-.602v2.824h-.011l-1.8-2.824h-.567zm-2.068.572l.051.005.049.007.048.009.045.012.044.014.043.016.04.019.037.021.034.023.033.023.031.025.029.026.027.028.026.029.023.03.014.016.014.017.013.017.013.018.012.019.012.019.011.02.01.02.01.021.009.022.017.044.014.047.012.049.005.029.005.03.008.071.007.083.006.094.004.105.003.118.002.129.001.14-.001.141-.002.129-.003.117-.004.105-.006.093-.007.082-.008.069-.005.03-.005.028-.012.05-.014.049-.009.023-.008.022-.009.022-.01.021-.01.021-.011.02-.012.019-.012.019-.013.018-.013.018-.014.017-.014.016-.023.03-.026.029-.027.027-.029.025-.031.025-.033.022-.034.021-.037.02-.02.011-.02.01-.021.01-.022.009-.021.008-.023.007-.022.007-.023.006-.024.005-.024.005-.024.003-.025.004-.051.004-.053.001-.053-.001-.05-.004-.025-.004-.024-.003-.023-.005-.023-.005-.023-.006-.022-.007-.022-.007-.021-.008-.02-.009-.021-.01-.019-.01-.02-.011-.038-.02-.036-.021-.034-.022-.032-.025-.031-.025-.028-.027-.027-.029-.025-.03-.014-.016-.014-.017-.013-.018-.012-.018-.012-.019-.011-.019-.011-.02-.01-.021-.01-.021-.008-.022-.009-.022-.007-.023-.007-.024-.006-.025-.011-.05-.005-.028-.005-.03-.009-.069-.008-.082-.006-.093-.005-.105-.003-.117-.002-.129-.001-.141.001-.14.002-.129.003-.118.005-.105.006-.094.008-.083.009-.071.005-.03.005-.029.011-.049.006-.024.007-.023.007-.022.009-.022.008-.022.01-.021.01-.02.011-.02.011-.019.012-.019.012-.018.013-.017.014-.017.014-.016.025-.03.027-.029.028-.028.031-.026.032-.025.034-.023.036-.023.038-.021.039-.019.041-.016.043-.014.045-.012.046-.009.049-.007.05-.005.053-.002.053.002zM4 17v3.01l.054-.042.485-.351.101-.069.104-.062.109-.056.078-.034v-1.298l.004-.126.012-.125.02-.124.027-.123.035-.12.043-.119.05-.115.057-.112.064-.108L5.26 17H4z" fill="#53657d"/></svg>