<?xml version="1.0" encoding="UTF-8" standalone="no"?>
<!DOCTYPE svg PUBLIC "-//W3C//DTD SVG 1.1//EN" "http://www.w3.org/Graphics/SVG/1.1/DTD/svg11.dtd">
<svg width="100%" height="100%" viewBox="0 0 1100 130" version="1.1" xmlns="http://www.w3.org/2000/svg" xmlns:xlink="http://www.w3.org/1999/xlink" xml:space="preserve" style="fill-rule:evenodd;clip-rule:evenodd;stroke-linejoin:round;stroke-miterlimit:1.41421;">
    <g transform="matrix(0.224073,0,0,0.210915,331.296,-28.6145)">
        <text x="-1404.62px" y="558.93px" style="font-family:'TeXGyreAdventor-Regular', 'TeX Gyre Adventor';font-size:398.895px;fill:rgb(55,60,66);">e<tspan x="-1125.4px -862.126px -706.956px -578.911px -299.684px -7.693px 132.319px 232.042px 406.758px " y="558.93px 558.93px 558.93px 558.93px 558.93px 558.93px 558.93px 558.93px 558.93px ">ntreprise</tspan></text>
        <text x="685.984px" y="558.93px" style="font-family:'NimbusRomNo9L-Reg', 'Nimbus Roman No9 L';font-size:398.895px;fill:rgb(55,60,66);">.</text>
        <text x="795.68px" y="558.93px" style="font-family:'TeXGyreAdventor-Bold', 'TeX Gyre Adventor';font-weight:700;font-size:398.895px;fill:rgb(55,60,66);">d</text>
        <text x="1068.92px" y="558.93px" style="font-family:'TeXGyreAdventor-Bold', 'TeX Gyre Adventor';font-weight:700;font-size:398.895px;fill:rgb(55,60,66);">a<tspan x="1352.14px 1487.76px " y="558.93px 558.93px ">ta</tspan></text>
        <text x="1770.98px" y="558.93px" style="font-family:'NimbusRomNo9L-Reg', 'Nimbus Roman No9 L';font-size:398.895px;fill:rgb(55,60,66);">.</text>
        <text x="1890.65px" y="558.93px" style="font-family:'TeXGyreAdventor-Bold', 'TeX Gyre Adventor';font-weight:700;font-size:398.895px;fill:rgb(55,60,66);">g<tspan x="2173.86px 2449.1px " y="558.93px 558.93px ">ou</tspan></text>
        <text x="2708.38px" y="558.93px" style="font-family:'TeXGyreAdventor-Bold', 'TeX Gyre Adventor';font-weight:700;font-size:398.895px;fill:rgb(55,60,66);">v</text>
        <g transform="matrix(0.941277,0,0,1,170.991,0)">
            <text x="2911.82px" y="558.93px" style="font-family:'NimbusRomNo9L-Reg', 'Nimbus Roman No9 L';font-size:398.74px;fill:rgb(55,60,66);">.</text>
        </g>
        <g transform="matrix(0.969012,0,0,1,93.7192,0)">
            <text x="3024.41px" y="558.93px" style="font-family:'Junicode-Italic', 'Junicode';font-style:italic;font-size:540.503px;fill:rgb(55,60,66);"></text>
        </g>
    </g>
</svg>
