<svg xmlns="http://www.w3.org/2000/svg" viewBox="0 0 100 100"><path d="M65 32H35a3 3 0 0 0-3 3v30a3 3 0 0 0 3 3h30a3 3 0 0 0 3-3V35a3 3 0 0 0-3-3zm-3 30H38V38h24zM50 77a10.5 10.5 0 1 0 10.5 10.5A10.511 10.511 0 0 0 50 77zm0 15a4.5 4.5 0 1 1 4.5-4.5A4.505 4.505 0 0 1 50 92zm0-69a10.5 10.5 0 1 0-10.5-10.5A10.511 10.511 0 0 0 50 23zm0-15a4.5 4.5 0 1 1-4.5 4.5A4.505 4.505 0 0 1 50 8zM23 50a10.5 10.5 0 1 0-10.5 10.5A10.511 10.511 0 0 0 23 50zM8 50a4.5 4.5 0 1 1 4.5 4.5A4.505 4.505 0 0 1 8 50zm79.5-10.5A10.5 10.5 0 1 0 98 50a10.511 10.511 0 0 0-10.5-10.5zm0 15A4.5 4.5 0 1 1 92 50a4.505 4.505 0 0 1-4.5 4.5zm-7.5-24A10.5 10.5 0 1 0 69.5 20 10.511 10.511 0 0 0 80 30.5zm0-15a4.5 4.5 0 1 1-4.5 4.5 4.505 4.505 0 0 1 4.5-4.5zm-60-6A10.5 10.5 0 1 0 30.5 20 10.511 10.511 0 0 0 20 9.5zm0 15a4.5 4.5 0 1 1 4.5-4.5 4.505 4.505 0 0 1-4.5 4.5zm0 45A10.5 10.5 0 1 0 30.5 80 10.511 10.511 0 0 0 20 69.5zm0 15a4.5 4.5 0 1 1 4.5-4.5 4.505 4.505 0 0 1-4.5 4.5zm60-15A10.5 10.5 0 1 0 90.5 80 10.511 10.511 0 0 0 80 69.5zm0 15a4.5 4.5 0 1 1 4.5-4.5 4.505 4.505 0 0 1-4.5 4.5z"/></svg>