<svg xmlns="http://www.w3.org/2000/svg" viewBox="0 0 100 100"><path d="M75.32 70.843a1.995 1.995 0 0 1-1.577.481c-1.85-.237-5.672.398-10.882 2.902a46.33 46.33 0 0 0-4.494 2.486 66.416 66.416 0 0 1 8.746-.595h.28c5.632 0 10.86.644 14.865 1.805V32.87c-1.742-.597-3.887-1.07-6.258-1.41v37.882a2 2 0 0 1-.68 1.502zm-42.433 5.274a66.38 66.38 0 0 1 8.747.595 46.283 46.283 0 0 0-4.494-2.486c-5.212-2.504-9.034-3.14-10.883-2.902A1.997 1.997 0 0 1 24 69.341V31.455c-2.372.34-4.512.815-6.258 1.414v45.053c4.005-1.16 9.234-1.805 14.863-1.805h.282z"/><path d="M28 67.311c2.99.207 6.812 1.359 10.872 3.31 3.358 1.613 6.515 3.588 9.122 5.68L48 32.424c-2.616-2.657-6.613-5.403-10.86-7.444-3.91-1.88-7.041-2.707-9.14-2.902V67.31zm24-34.887l.007 43.876c2.607-2.09 5.763-4.066 9.122-5.68 4.06-1.95 7.88-3.103 10.871-3.309V22.078c-2.099.195-5.23 1.023-9.139 2.902-4.248 2.04-8.245 4.787-10.861 7.444z"/></svg>