<!-- Created by Freepik for Flaticon -->
<svg version="1.1" id="Capa_1" xmlns="http://www.w3.org/2000/svg" xmlns:xlink="http://www.w3.org/1999/xlink" x="0px" y="0px"
	 viewBox="0 0 375.65 375.65" style="enable-background:new 0 0 375.65 375.65;" xml:space="preserve">
<g>
	<path d="M194.351,269.676c-1.733-0.607-3.589-0.953-5.53-0.953H169.24v-22.448h40.138c8.402-7.609,18.855-12.317,29.778-15.556
		c-2.851-4.102-5.327-8.538-7.39-13.231H28.786V76.537h233.265v35.611c8.632-3.388,18.456-5.24,28.786-5.24h0.001V72.566
		c0-13.705-11.109-24.816-24.815-24.816H24.816C11.109,47.751,0,58.861,0,72.566v148.892c0,13.705,11.109,24.816,24.816,24.816
		h96.781v22.448h-19.58c-9.256,0-16.759,7.503-16.759,16.759c0,9.256,7.503,16.76,16.759,16.76h86.805
		c0.285,0,0.563-0.029,0.844-0.043C190.155,289.773,191.222,279.144,194.351,269.676z"/>
	<g>
		<path d="M375.576,315.929c-0.471-24.604-0.784-40.858-8.455-52.924c-8.802-13.843-25.481-19.321-49.574-23.672
			c-0.009-0.001-0.018-0.003-0.026-0.005c-0.275-0.054-2.521-0.485-6.674-0.906c-1.465-0.072-2.226-3.047-0.397-3.952
			c17.852-9.235,29.757-30.932,29.757-54.476c0-19.483-2.715-32.335-8.804-41.669c-7.546-11.566-24.229-17.56-40.567-17.56
			c-16.338,0-33.022,5.993-40.567,17.56c-6.089,9.333-8.804,22.186-8.804,41.669c0,23.544,11.906,45.241,29.757,54.476
			c1.829,0.905,1.069,3.88-0.397,3.952c-4.153,0.421-6.398,0.853-6.674,0.906c-0.008,0.002-0.017,0.004-0.025,0.005
			c-24.093,4.352-40.772,9.83-49.574,23.672c-7.672,12.065-7.984,28.32-8.456,52.924l-0.071,3.694
			c-0.043,2.18,0.792,4.284,2.319,5.842c1.527,1.557,3.615,2.434,5.795,2.434h153.395c2.181,0,4.269-0.877,5.795-2.434
			c1.527-1.558,2.362-3.663,2.32-5.842L375.576,315.929z"/>
	</g>
</g>
<g>
</g>
<g>
</g>
<g>
</g>
<g>
</g>
<g>
</g>
<g>
</g>
<g>
</g>
<g>
</g>
<g>
</g>
<g>
</g>
<g>
</g>
<g>
</g>
<g>
</g>
<g>
</g>
<g>
</g>
</svg>
