<svg xmlns="http://www.w3.org/2000/svg" viewBox="0 0 375.65 375.65"><path d="M194.351 269.676a16.684 16.684 0 0 0-5.53-.953H169.24v-22.448h40.138c8.402-7.609 18.855-12.317 29.778-15.556a78.607 78.607 0 0 1-7.39-13.231H28.786V76.537h233.265v35.611c8.632-3.388 18.456-5.24 28.786-5.24h.001V72.566c0-13.705-11.109-24.816-24.815-24.816H24.816C11.109 47.751 0 58.861 0 72.566v148.892c0 13.705 11.109 24.816 24.816 24.816h96.781v22.448h-19.58c-9.256 0-16.759 7.503-16.759 16.759s7.503 16.76 16.759 16.76h86.805c.285 0 .563-.029.844-.043.489-12.425 1.556-23.054 4.685-32.522z"/><path d="M375.576 315.929c-.471-24.604-.784-40.858-8.455-52.924-8.802-13.843-25.481-19.321-49.574-23.672a.2.2 0 0 1-.026-.005c-.275-.054-2.521-.485-6.674-.906-1.465-.072-2.226-3.047-.397-3.952 17.852-9.235 29.757-30.932 29.757-54.476 0-19.483-2.715-32.335-8.804-41.669-7.546-11.566-24.229-17.56-40.567-17.56s-33.022 5.993-40.567 17.56c-6.089 9.333-8.804 22.186-8.804 41.669 0 23.544 11.906 45.241 29.757 54.476 1.829.905 1.069 3.88-.397 3.952-4.153.421-6.398.853-6.674.906a.221.221 0 0 1-.025.005c-24.093 4.352-40.772 9.83-49.574 23.672-7.672 12.065-7.984 28.32-8.456 52.924l-.071 3.694a8.115 8.115 0 0 0 8.114 8.276h153.395a8.121 8.121 0 0 0 8.115-8.276l-.073-3.694z"/></svg>