<svg xmlns="http://www.w3.org/2000/svg" viewBox="0 0 66 66"><path d="M65.5 16.2c-.1.5-.5.8-1 .8h-63c-.5 0-.9-.3-1-.8-.1-.5.1-.9.6-1.1L32.6.6c.3-.1.6-.1.8 0L64.9 15c.4.2.7.7.6 1.2zM62 18.9v2c0 .6-.5 1-1 1H5c-.6 0-1-.4-1-1v-2h58zm0 36.5v1H4v-1c0-.6.4-1 1-1h56c.5 0 1 .4 1 1zm3.5 4v5.1c0 .6-.4 1-1 1h-63c-.6 0-1-.4-1-1v-5.1c0-.6.4-1 1-1h63c.6 0 1 .4 1 1zM9 27.9h8.6v20.5H9zm26.2 0h8.6v20.5h-8.6zm13.2 0H57v20.5h-8.6zm-26.3 0h8.6v20.5h-8.6zM18.8 51.4v1h-11v-1c0-.6.5-1 1-1h9c.6 0 1 .4 1 1zm0-27.5v1c0 .5-.4 1-1 1h-9c-.6 0-1-.5-1-1v-1h11zm13.1 27.5v1h-11v-1c0-.6.4-1 1-1h9c.6 0 1 .4 1 1zm13.2-27.5v1c0 .5-.4 1-1 1h-9c-.6 0-1-.5-1-1v-1h11zm-13.2 0v1c0 .5-.5 1-1 1h-9c-.6 0-1-.5-1-1v-1h11zm26.3 0v1c0 .5-.4 1-1 1h-9c-.6 0-1-.5-1-1v-1h11zm0 27.5v1h-11v-1c0-.6.4-1 1-1h9c.5 0 1 .4 1 1zm-13.1 0v1h-11v-1c0-.6.4-1 1-1h9c.5 0 1 .4 1 1z"/></svg>