<!-- Created by gayatri from the Noun Project -->
<svg xmlns="http://www.w3.org/2000/svg" xmlns:xlink="http://www.w3.org/1999/xlink" version="1.1" x="0px" y="0px" viewBox="0 0 595.3 1052.375" enable-background="new 0 0 595.3 841.9" xml:space="preserve"><path d="M561.6,506.8c-21,72.3-58,125.2-115.3,163.4c-77.6,51.7-87.9,49.3-130.5-31.1c-26.3-49.6-46.9-102.6-78.1-149.3  c-20.3-30.3,41.7-108.5,99.3-108.5c24,0,37.6,9.8,65,28.4C456,446.5,553.8,500.4,561.6,506.8z"/><path d="M347.4,365.4c18.4-34.4,30.7-87.9,52.7-92.2c43.8-8.6,93,9.5,139.8,17.7c5.4,0.9,12.3,8.4,13.7,14  c13.3,54.7,28.2,125.3,12.1,184.8C493.7,452.2,415.2,400.9,347.4,365.4z"/><path d="M323.5,708.6c-69.4,24.3-146.4-3.5-156.3-11.8c-6.5-5.4-17.7-15.7-22-25.9c-4.7-11.2-3.7-24.7-5.9-37.1  C121,530,120.9,530,223.1,489.8c35.2,67.7,60.4,122.4,105.9,203.6C331.7,698,328.6,706.8,323.5,708.6z"/><path d="M410.3,259c9.2-35.9-0.2-86.2,44.1-95c44.9-8.9,82.7,95.1,90.2,116C498.1,262.3,456.4,262,410.3,259z"/><path d="M121.3,560.2c1.3,37.8,7.4,70.5,8.7,109.8c-61.8-14.6-106.2-42.1-101.7-73.2C32.7,565.8,57.2,555.7,121.3,560.2z"/></svg>
