<svg xmlns="http://www.w3.org/2000/svg" viewBox="0 0 595.3 800"><path d="M561.6 506.8c-21 72.3-58 125.2-115.3 163.4-77.6 51.7-87.9 49.3-130.5-31.1-26.3-49.6-46.9-102.6-78.1-149.3-20.3-30.3 41.7-108.5 99.3-108.5 24 0 37.6 9.8 65 28.4 54 36.8 151.8 90.7 159.6 97.1zM347.4 365.4c18.4-34.4 30.7-87.9 52.7-92.2 43.8-8.6 93 9.5 139.8 17.7 5.4.9 12.3 8.4 13.7 14 13.3 54.7 28.2 125.3 12.1 184.8-72-37.5-150.5-88.8-218.3-124.3zm-23.9 343.2c-69.4 24.3-146.4-3.5-156.3-11.8-6.5-5.4-17.7-15.7-22-25.9-4.7-11.2-3.7-24.7-5.9-37.1C121 530 120.9 530 223.1 489.8c35.2 67.7 60.4 122.4 105.9 203.6 2.7 4.6-.4 13.4-5.5 15.2zM410.3 259c9.2-35.9-.2-86.2 44.1-95 44.9-8.9 82.7 95.1 90.2 116-46.5-17.7-88.2-18-134.3-21zm-289 301.2c1.3 37.8 7.4 70.5 8.7 109.8-61.8-14.6-106.2-42.1-101.7-73.2 4.4-31 28.9-41.1 93-36.6z"/></svg>