<svg viewBox="0 0 32 32" xmlns="http://www.w3.org/2000/svg" fill-rule="evenodd" clip-rule="evenodd" stroke-linejoin="round" stroke-miterlimit="1.414"><path d="M29 0H3C1.35 0 0 1.35 0 3v26c0 1.65 1.35 3 3 3h26c1.65 0 3-1.35 3-3V3c0-1.65-1.35-3-3-3zM8.719 25.975A2.71 2.71 0 0 1 6 23.269a2.72 2.72 0 0 1 5.438 0 2.71 2.71 0 0 1-2.719 2.706zm6.825.025a9.506 9.506 0 0 0-2.794-6.762 9.48 9.48 0 0 0-6.75-2.8v-3.912c7.425 0 13.475 6.044 13.475 13.475h-3.931V26zm6.944 0c0-9.094-7.394-16.5-16.481-16.5V5.588c11.25 0 20.406 9.162 20.406 20.413h-3.925V26z" fill="#fff" fill-rule="nonzero"/></svg>