<svg xmlns="http://www.w3.org/2000/svg" viewBox="0 0 100 100"><path d="M41.693 60.531c0 5.77 2.036 11.063 5.429 15.204-1.484.026-3.009.04-4.565.04-14.887 0-26.955-1.267-26.955-2.83 0-1.338 8.837-2.459 20.715-2.754v-5.466H2.584C1.157 64.726 0 63.549 0 62.096V14.947c0-1.452 1.157-2.629 2.584-2.629h79.945c1.428 0 2.584 1.177 2.584 2.629v31.462a24.13 24.13 0 0 0-5.566-5.49V16.533H5.567V55.4h36.678a24.093 24.093 0 0 0-.552 5.131zM9.73 35.038s2.001-11.724 15.631-15.06H9.73v15.06zm89.032 46.956l-1.688-1.299-3.871 5.03 1.688 1.298a3.173 3.173 0 0 0 3.871-5.029zm-2.598-2l-3.871 5.031-13.099-10.08a19.695 19.695 0 0 1-13.472 5.303c-10.919 0-19.771-8.852-19.771-19.77 0-10.919 8.852-19.771 19.771-19.771s19.77 8.852 19.77 19.771c0 3.425-.871 6.646-2.403 9.455l13.075 10.061zM79.915 60.479c0-7.839-6.354-14.193-14.192-14.193-7.839 0-14.192 6.354-14.192 14.193 0 7.838 6.354 14.192 14.192 14.192s14.192-6.355 14.192-14.192z"/></svg>