<!-- Created by Freepik for Flaticon -->
<svg version="1.1" id="Capa_1" xmlns="http://www.w3.org/2000/svg" xmlns:xlink="http://www.w3.org/1999/xlink" x="0px" y="0px"
	 viewBox="0 0 310 310" style="enable-background:new 0 0 310 310;" xml:space="preserve">
<g>
	<path d="M283.55,18.315H26.452C11.841,18.315,0,30.155,0,44.765v158.703c0,14.607,11.841,26.452,26.452,26.452h104.642v30.17
		h-25.926c-8.712,0-15.798,7.087-15.798,15.797c0,8.713,7.086,15.799,15.798,15.799h99.664c8.712,0,15.798-7.086,15.798-15.799
		c0-8.71-7.087-15.797-15.798-15.797h-25.926v-30.17H283.55c14.609,0,26.45-11.845,26.45-26.452V44.765
		C310,30.155,298.159,18.315,283.55,18.315z M288.912,205.031H21.088V43.199h267.823V205.031z"/>
	<g>
		<path d="M92.511,184.13c-4.142,0-7.5-3.358-7.5-7.5v-41.523c0-4.142,3.358-7.5,7.5-7.5c4.142,0,7.5,3.358,7.5,7.5v41.523
			C100.011,180.773,96.653,184.13,92.511,184.13z"/>
	</g>
	<g>
		<path d="M117.506,184.13c-4.142,0-7.5-3.358-7.5-7.5v-71.519c0-4.142,3.358-7.5,7.5-7.5c4.142,0,7.5,3.358,7.5,7.5v71.519
			C125.006,180.773,121.648,184.13,117.506,184.13z"/>
	</g>
	<g>
		<path d="M142.501,184.13c-4.143,0-7.5-3.358-7.5-7.5V85.115c0-4.142,3.357-7.5,7.5-7.5c4.142,0,7.5,3.358,7.5,7.5v91.515
			C150.001,180.773,146.643,184.13,142.501,184.13z"/>
	</g>
	<g>
		<path d="M167.498,184.13c-4.142,0-7.5-3.358-7.5-7.5v-66.52c0-4.142,3.358-7.5,7.5-7.5s7.5,3.358,7.5,7.5v66.52
			C174.998,180.773,171.64,184.13,167.498,184.13z"/>
	</g>
	<g>
		<path d="M192.494,184.13c-4.142,0-7.5-3.358-7.5-7.5V71.601c0-4.142,3.358-7.5,7.5-7.5c4.142,0,7.5,3.358,7.5,7.5v105.03
			C199.994,180.773,196.636,184.13,192.494,184.13z"/>
	</g>
	<g>
		<path d="M217.489,184.13c-4.142,0-7.5-3.358-7.5-7.5V96.598c0-4.142,3.358-7.5,7.5-7.5c4.142,0,7.5,3.358,7.5,7.5v80.033
			C224.989,180.773,221.631,184.13,217.489,184.13z"/>
	</g>
</g>
<g>
</g>
<g>
</g>
<g>
</g>
<g>
</g>
<g>
</g>
<g>
</g>
<g>
</g>
<g>
</g>
<g>
</g>
<g>
</g>
<g>
</g>
<g>
</g>
<g>
</g>
<g>
</g>
<g>
</g>
</svg>
