<svg xmlns="http://www.w3.org/2000/svg" viewBox="0 0 310 310"><path d="M283.55 18.315H26.452C11.841 18.315 0 30.155 0 44.765v158.703c0 14.607 11.841 26.452 26.452 26.452h104.642v30.17h-25.926c-8.712 0-15.798 7.087-15.798 15.797 0 8.713 7.086 15.799 15.798 15.799h99.664c8.712 0 15.798-7.086 15.798-15.799 0-8.71-7.087-15.797-15.798-15.797h-25.926v-30.17H283.55c14.609 0 26.45-11.845 26.45-26.452V44.765c0-14.61-11.841-26.45-26.45-26.45zm5.362 186.716H21.088V43.199h267.823v161.832z"/><path d="M92.511 184.13a7.5 7.5 0 0 1-7.5-7.5v-41.523a7.5 7.5 0 0 1 15 0v41.523a7.5 7.5 0 0 1-7.5 7.5zm24.995 0a7.5 7.5 0 0 1-7.5-7.5v-71.519a7.5 7.5 0 0 1 15 0v71.519a7.5 7.5 0 0 1-7.5 7.5zm24.995 0a7.5 7.5 0 0 1-7.5-7.5V85.115a7.5 7.5 0 0 1 15 0v91.515a7.5 7.5 0 0 1-7.5 7.5zm24.997 0a7.5 7.5 0 0 1-7.5-7.5v-66.52a7.5 7.5 0 0 1 15 0v66.52a7.5 7.5 0 0 1-7.5 7.5zm24.996 0a7.5 7.5 0 0 1-7.5-7.5V71.601a7.5 7.5 0 0 1 15 0v105.03a7.5 7.5 0 0 1-7.5 7.499zm24.995 0a7.5 7.5 0 0 1-7.5-7.5V96.598a7.5 7.5 0 0 1 15 0v80.033a7.5 7.5 0 0 1-7.5 7.499z"/></svg>