<!-- Created by Freepik for Flaticon -->
<svg version="1.1" id="Capa_1" xmlns="http://www.w3.org/2000/svg" xmlns:xlink="http://www.w3.org/1999/xlink" x="0px" y="0px"
	 viewBox="0 0 340 340" style="enable-background:new 0 0 340 340;" xml:space="preserve">
<g>
	<path d="M213.744,238.887l0.629-4.003c0.78-4.963,1.171-10.02,1.171-15.038c0-5.019-0.391-10.084-1.177-15.052l-0.625-4.005
		l16.227-14.417c3.282-2.922,4.069-7.818,1.871-11.636l-17.295-29.944c-1.66-2.884-4.753-4.673-8.082-4.673
		c-0.996,0-1.99,0.163-2.945,0.479l-20.648,6.863l-3.154-2.561c-7.854-6.366-16.599-11.427-25.99-15.042l-3.79-1.453l-4.371-21.273
		c-0.886-4.307-4.73-7.44-9.133-7.44h-34.597c-4.404,0-8.245,3.134-9.131,7.448l-4.371,21.27l-3.787,1.457
		c-9.39,3.61-18.133,8.673-25.984,15.046l-3.158,2.56l-20.654-6.863c-0.95-0.316-1.941-0.478-2.938-0.478
		c-3.321,0-6.416,1.789-8.085,4.667L6.425,174.768c-2.191,3.812-1.399,8.702,1.892,11.624l16.223,14.415l-0.627,4.005
		c-0.775,4.954-1.173,10.015-1.173,15.035c0,5.034,0.397,10.098,1.177,15.051l0.628,4.005L8.322,253.313
		c-3.292,2.93-4.08,7.82-1.881,11.634l17.299,29.958c1.661,2.879,4.751,4.668,8.073,4.668c1.002,0,1.986-0.162,2.933-0.478
		l20.668-6.869l3.155,2.563c7.851,6.367,16.596,11.428,25.993,15.043l3.786,1.457l4.368,21.273c0.892,4.3,4.735,7.434,9.137,7.435
		h34.596c4.409,0,8.248-3.131,9.129-7.44l4.374-21.277l3.79-1.456c9.385-3.61,18.131-8.673,25.983-15.047l3.157-2.56l20.652,6.864
		c0.949,0.315,1.939,0.477,2.938,0.477c3.32,0,6.419-1.789,8.082-4.667l17.306-29.968c2.191-3.813,1.402-8.7-1.893-11.619
		L213.744,238.887z M119.144,260.579c-22.463,0-40.739-18.273-40.739-40.733c0-22.459,18.276-40.732,40.739-40.732
		c22.457,0,40.73,18.273,40.73,40.732C159.874,242.306,141.601,260.579,119.144,260.579z"/>
	<path d="M333.977,120.413l-4.936-3.893c0.263-1.769,0.352-3.589,0.243-5.441c-0.108-1.857-0.406-3.653-0.874-5.381l4.45-4.442
		c0.732-0.732,0.848-1.878,0.281-2.743l-5.279-8.03c-0.571-0.866-1.674-1.21-2.634-0.828l-5.862,2.336
		c-2.819-2.245-6.105-3.921-9.667-4.867l-1.622-6.077c-0.267-1-1.2-1.676-2.237-1.616l-9.587,0.558
		c-1.039,0.062-1.888,0.841-2.038,1.867l-0.901,6.225c-3.434,1.35-6.503,3.399-9.044,5.96l-6.086-1.639
		c-1.002-0.267-2.052,0.202-2.516,1.13l-4.316,8.584c-0.464,0.927-0.213,2.053,0.602,2.694l4.935,3.896
		c-0.267,1.766-0.353,3.586-0.241,5.44c0.105,1.857,0.403,3.656,0.879,5.382l-4.457,4.437c-0.732,0.733-0.849,1.884-0.275,2.748
		l5.273,8.025c0.573,0.866,1.673,1.213,2.635,0.829l5.859-2.332c2.822,2.246,6.107,3.922,9.669,4.867l1.623,6.078
		c0.267,0.999,1.205,1.674,2.238,1.614l9.589-0.56c1.036-0.06,1.885-0.837,2.033-1.864l0.908-6.226
		c3.427-1.35,6.495-3.401,9.036-5.96l6.09,1.639c0.998,0.268,2.049-0.206,2.517-1.13l4.312-8.588
		C335.04,122.182,334.789,121.057,333.977,120.413z M303.647,124.31c-6.448,0.374-12.003-4.565-12.38-11.018
		c-0.374-6.447,4.57-12.003,11.018-12.378c6.453-0.376,12.006,4.566,12.381,11.015C315.04,118.38,310.099,123.932,303.647,124.31z"
		/>
	<path d="M278.568,73.335l2.4-16.602c0.256-1.788-0.779-3.513-2.479-4.129l-10.325-3.728c-0.54-3.071-1.397-6.131-2.604-9.141
		c-1.2-3.015-2.691-5.826-4.42-8.427l4.918-9.812c0.809-1.616,0.368-3.582-1.05-4.699L251.835,6.419
		c-1.418-1.122-3.439-1.082-4.818,0.083l-8.415,7.101c-5.908-2.164-12.275-3.126-18.697-2.72l-6.042-9.171
		c-0.995-1.51-2.92-2.11-4.597-1.439l-15.569,6.219c-1.683,0.673-2.66,2.433-2.345,4.214l1.942,10.807
		c-4.932,4.133-8.884,9.218-11.676,14.861l-10.987,0.649c-1.807,0.109-3.286,1.47-3.542,3.263l-2.403,16.598
		c-0.259,1.788,0.78,3.514,2.482,4.128l10.322,3.728c0.535,3.072,1.396,6.132,2.602,9.14c1.203,3.016,2.691,5.828,4.422,8.43
		l-4.916,9.81c-0.813,1.618-0.372,3.584,1.048,4.7l13.176,10.379c1.42,1.121,3.439,1.085,4.817-0.083l8.414-7.101
		c5.912,2.166,12.274,3.129,18.696,2.723l6.045,9.17c0.992,1.51,2.917,2.111,4.597,1.438l15.57-6.217
		c1.681-0.675,2.658-2.434,2.341-4.213l-1.939-10.809c4.931-4.133,8.881-9.218,11.676-14.86l10.984-0.649
		C276.83,76.486,278.31,75.123,278.568,73.335z M230.416,75.802c-10.476,4.184-22.398-0.931-26.582-11.406
		c-4.185-10.473,0.932-22.397,11.405-26.582c10.475-4.186,22.4,0.933,26.585,11.406C246.008,59.693,240.889,71.618,230.416,75.802z"
		/>
</g>
<g>
</g>
<g>
</g>
<g>
</g>
<g>
</g>
<g>
</g>
<g>
</g>
<g>
</g>
<g>
</g>
<g>
</g>
<g>
</g>
<g>
</g>
<g>
</g>
<g>
</g>
<g>
</g>
<g>
</g>
</svg>
