<svg xmlns="http://www.w3.org/2000/svg" viewBox="0 0 340 340"><path d="M213.744 238.887l.629-4.003a97.136 97.136 0 0 0 1.171-15.038c0-5.019-.391-10.084-1.177-15.052l-.625-4.005 16.227-14.417c3.282-2.922 4.069-7.818 1.871-11.636l-17.295-29.944a9.344 9.344 0 0 0-8.082-4.673c-.996 0-1.99.163-2.945.479l-20.648 6.863-3.154-2.561a95.986 95.986 0 0 0-25.99-15.042l-3.79-1.453-4.371-21.273c-.886-4.307-4.73-7.44-9.133-7.44h-34.597c-4.404 0-8.245 3.134-9.131 7.448l-4.371 21.27-3.787 1.457a95.625 95.625 0 0 0-25.984 15.046l-3.158 2.56-20.654-6.863a9.305 9.305 0 0 0-2.938-.478 9.376 9.376 0 0 0-8.085 4.667L6.425 174.768c-2.191 3.812-1.399 8.702 1.892 11.624l16.223 14.415-.627 4.005a97.614 97.614 0 0 0-1.173 15.035c0 5.034.397 10.098 1.177 15.051l.628 4.005-16.223 14.41c-3.292 2.93-4.08 7.82-1.881 11.634l17.299 29.958a9.345 9.345 0 0 0 8.073 4.668 9.238 9.238 0 0 0 2.933-.478l20.668-6.869 3.155 2.563a95.844 95.844 0 0 0 25.993 15.043l3.786 1.457 4.368 21.273c.892 4.3 4.735 7.434 9.137 7.435h34.596c4.409 0 8.248-3.131 9.129-7.44l4.374-21.277 3.79-1.456a95.687 95.687 0 0 0 25.983-15.047l3.157-2.56 20.652 6.864a9.319 9.319 0 0 0 2.938.477 9.365 9.365 0 0 0 8.082-4.667l17.306-29.968c2.191-3.813 1.402-8.7-1.893-11.619l-16.223-14.417zm-94.6 21.692c-22.463 0-40.739-18.273-40.739-40.733 0-22.459 18.276-40.732 40.739-40.732 22.457 0 40.73 18.273 40.73 40.732 0 22.46-18.273 40.733-40.73 40.733zm214.833-140.166l-4.936-3.893c.263-1.769.352-3.589.243-5.441a26.413 26.413 0 0 0-.874-5.381l4.45-4.442a2.186 2.186 0 0 0 .281-2.743l-5.279-8.03a2.19 2.19 0 0 0-2.634-.828l-5.862 2.336a26.408 26.408 0 0 0-9.667-4.867l-1.622-6.077c-.267-1-1.2-1.676-2.237-1.616l-9.587.558a2.188 2.188 0 0 0-2.038 1.867l-.901 6.225a26.307 26.307 0 0 0-9.044 5.96l-6.086-1.639a2.18 2.18 0 0 0-2.516 1.13l-4.316 8.584a2.184 2.184 0 0 0 .602 2.694l4.935 3.896a25.908 25.908 0 0 0-.241 5.44c.105 1.857.403 3.656.879 5.382l-4.457 4.437a2.183 2.183 0 0 0-.275 2.748l5.273 8.025a2.188 2.188 0 0 0 2.635.829l5.859-2.332a26.41 26.41 0 0 0 9.669 4.867l1.623 6.078a2.187 2.187 0 0 0 2.238 1.614l9.589-.56a2.178 2.178 0 0 0 2.033-1.864l.908-6.226a26.369 26.369 0 0 0 9.036-5.96l6.09 1.639a2.19 2.19 0 0 0 2.517-1.13l4.312-8.588a2.187 2.187 0 0 0-.6-2.692zm-30.33 3.897c-6.448.374-12.003-4.565-12.38-11.018-.374-6.447 4.57-12.003 11.018-12.378 6.453-.376 12.006 4.566 12.381 11.015.374 6.451-4.567 12.003-11.019 12.381zm-25.079-50.975l2.4-16.602a3.818 3.818 0 0 0-2.479-4.129l-10.325-3.728a45.87 45.87 0 0 0-2.604-9.141 45.8 45.8 0 0 0-4.42-8.427l4.918-9.812a3.814 3.814 0 0 0-1.05-4.699L251.835 6.419a3.813 3.813 0 0 0-4.818.083l-8.415 7.101a45.954 45.954 0 0 0-18.697-2.72l-6.042-9.171a3.813 3.813 0 0 0-4.597-1.439l-15.569 6.219a3.822 3.822 0 0 0-2.345 4.214l1.942 10.807a46.008 46.008 0 0 0-11.676 14.861l-10.987.649a3.806 3.806 0 0 0-3.542 3.263l-2.403 16.598a3.812 3.812 0 0 0 2.482 4.128l10.322 3.728a45.533 45.533 0 0 0 2.602 9.14 45.894 45.894 0 0 0 4.422 8.43l-4.916 9.81a3.806 3.806 0 0 0 1.048 4.7l13.176 10.379a3.809 3.809 0 0 0 4.817-.083l8.414-7.101a45.927 45.927 0 0 0 18.696 2.723l6.045 9.17a3.808 3.808 0 0 0 4.597 1.438l15.57-6.217a3.82 3.82 0 0 0 2.341-4.213l-1.939-10.809a46.069 46.069 0 0 0 11.676-14.86l10.984-.649a3.819 3.819 0 0 0 3.545-3.263zm-48.152 2.467c-10.476 4.184-22.398-.931-26.582-11.406-4.185-10.473.932-22.397 11.405-26.582 10.475-4.186 22.4.933 26.585 11.406 4.184 10.473-.935 22.398-11.408 26.582z"/></svg>