<svg xmlns="http://www.w3.org/2000/svg" viewBox="0 0 502.688 502.688"><path d="M283.4 7.97c-120.883 0-219.245 98.363-219.245 219.267 0 43.573 12.921 84.083 34.923 118.251l-89.001 87.599.194.237c-13.741 14.215-13.741 36.821.28 50.778 13.935 14.064 36.584 14.129 50.821.345l.216.28 86.65-85.205c37.296 29.336 84.191 47.024 135.206 47.024 120.883 0 219.245-98.363 219.245-219.267C502.645 106.333 404.283 7.97 283.4 7.97zM46.639 470.771c-6.277 6.212-16.415 6.234-22.736-.065-6.212-6.277-6.256-16.415 0-22.649s16.394-6.277 22.671-.022c6.256 6.278 6.256 16.438.065 22.736zm369.249-273.862c-2.351 16.48-30.587 35.29-23.534 51.748 7.054 16.459-4.702 35.268-4.702 35.268s-11.756 54.078-18.81 61.132c-7.054 7.054-49.375 25.885-39.992 37.641 9.448 11.735 37.619-2.33 65.856-9.426a196.278 196.278 0 0 0 20.6-6.385c-34.492 32.593-80.847 52.719-131.905 52.719-43.508 0-83.565-14.711-115.835-39.151l75.627-74.376 99.42-.28L369.769 204.2l-10.785-10.893-53.949 54.078-52.762-52.719 53.992-54.013-10.785-10.85-101.62 27.265-.324 96.637-.582-.582-74.225 73.039c-13.158-21.808-22.067-46.334-25.691-72.629 16.308-8.499 42.861-22.779 52.417-30.717 14.086-11.756-4.746-16.459-7.054-23.534-2.351-7.054 0-23.512 0-39.971 0-16.48 32.874-16.502 44.63-32.939 8.413-11.713-6.989-37.533-16.588-51.554 32.442-24.957 72.931-39.992 116.935-39.992 11.648 0 23.016 1.208 34.103 3.214 3.279 20.255 10.052 48.124 23.124 55.394 21.139 11.735 47.046 37.619 56.451 42.322 9.47 4.724 21.161 44.716 18.832 61.153zm28.236 14.129c-11.648-8.348-21.183-44.695-14.107-56.451 4.228-7.097 15.272-13.288 23.426-17.106 14.215 26.812 22.347 57.335 22.347 89.756 0 9.728-.971 19.241-2.351 28.581-4.142-16.544-12.166-32.463-29.315-44.78z" fill="#010002"/></svg>